# xmcd CD database file
#
# Track frame offsets:
#	150
#	14304
#	28687
#	41046
#	52549
#	65976
#	80676
#	102638
#	128618
#	149819
#	162698
#	167114
#	190629
#	204516
#
# Disc length: 2929 seconds
#
# Revision: 1
# Processed by: cddbd v1.5.2PL0 Copyright (c) Steve Scherf et al.
# Submitted via: CDex 1.79
#
DISCID=cb0b6f0e
DTITLE=Dizzy Gillespie and Charlie Parker - Bebop Story Vol. 3 1945-47
DYEAR=2008
DGENRE=Jazz
TTITLE0=Dizzy Boogie
TTITLE1=Dizzy Boogie
TTITLE2=Flat Foot Floogie
TTITLE3=Flat Foot Floogie
TTITLE4=Bopity Bop
TTITLE5=Slim's Jam
TTITLE6=Shaw  'Nuff
TTITLE7=Groovin' High
TTITLE8=Dizzy Atmosphere
TTITLE9=Diggin' Dizz
TTITLE10=Koko
TTITLE11=Hot House
TTITLE12=Surrender Dear
TTITLE13=Fine And Dandy
EXTD=YEAR: 2008
EXTT0=
EXTT1=
EXTT2=
EXTT3=
EXTT4=
EXTT5=
EXTT6=
EXTT7=
EXTT8=
EXTT9=
EXTT10=
EXTT11=
EXTT12=
EXTT13=
PLAYORDER=
